<svg width="200" height="36" viewBox="0 0 200 36" fill="none" xmlns="http://www.w3.org/2000/svg">
<g clip-path="url(#clip0_134_503)">
<path d="M56.8449 8.66797C58.3141 8.66797 59.5523 8.92337 60.5675 9.44268C61.5828 9.96199 62.4 10.6431 63.0273 11.4859C63.6546 12.3287 64.1086 13.2992 64.3893 14.3974C64.6699 15.4956 64.8102 16.6109 64.8102 17.7516C64.8102 19.1478 64.6286 20.4078 64.2655 21.54C63.9023 22.6723 63.3492 23.6343 62.6064 24.426C61.8635 25.2178 60.9225 25.8222 59.7834 26.2479C58.6443 26.6736 57.3071 26.8864 55.7718 26.8864H47.9055V8.66797H56.8449ZM53.3533 22.2211H55.4829C56.3249 22.2211 57.0017 22.0594 57.5135 21.7529C58.0252 21.4379 58.4132 21.0548 58.6856 20.5951C58.958 20.1354 59.1396 19.6416 59.2304 19.1138C59.3212 18.5859 59.3624 18.1092 59.3624 17.6835C59.3624 17.3941 59.3212 17.011 59.2469 16.5257C59.1726 16.0405 58.991 15.5637 58.7021 15.087C58.4132 14.6102 57.984 14.2016 57.4144 13.8611C56.8449 13.5205 56.069 13.3503 55.0785 13.3503H53.3451V22.2296L53.3533 22.2211Z" fill="#3074B4"/>
<path d="M71.2238 21.4038C71.2898 22.17 71.5292 22.7915 71.9419 23.2682C72.3546 23.745 72.9489 23.9834 73.7248 23.9834C74.121 23.9834 74.509 23.9067 74.8969 23.7535C75.2849 23.6003 75.5738 23.3619 75.7801 23.0384H80.3613C80.1136 23.7535 79.767 24.375 79.3212 24.9028C78.8755 25.4306 78.3555 25.8648 77.7777 26.2053C77.1916 26.5459 76.556 26.8013 75.8709 26.9715C75.1858 27.1418 74.4842 27.2269 73.7579 27.2269C72.7343 27.2269 71.7851 27.0737 70.9019 26.7672C70.0187 26.4607 69.2593 26.018 68.6154 25.4306C67.9716 24.8432 67.4681 24.1196 67.1049 23.2597C66.7417 22.3999 66.5601 21.4209 66.5601 20.3141C66.5601 19.3436 66.717 18.4412 67.0389 17.5984C67.3608 16.7556 67.8148 16.0149 68.4091 15.3764C69.0034 14.7379 69.7133 14.2357 70.5469 13.8696C71.3806 13.5035 72.3051 13.3247 73.3286 13.3247C74.5998 13.3247 75.6976 13.5035 76.6221 13.8611C77.5466 14.2186 78.306 14.7379 78.9003 15.4275C79.4946 16.1171 79.932 16.9599 80.2127 17.9645C80.4933 18.969 80.6337 20.1183 80.6337 21.4123H71.2321L71.2238 21.4038ZM75.9205 18.7732C75.9205 18.1603 75.7224 17.641 75.3179 17.2068C74.9135 16.7726 74.3934 16.5513 73.7744 16.5513C73.0315 16.5513 72.4537 16.7386 72.041 17.1217C71.6283 17.5048 71.3641 18.0496 71.2486 18.7647H75.9287L75.9205 18.7732Z" fill="#3074B4"/>
<path d="M86.8078 21.4038C86.8739 22.17 87.1132 22.7915 87.526 23.2682C87.9387 23.745 88.533 23.9834 89.3089 23.9834C89.7051 23.9834 90.093 23.9067 90.481 23.7535C90.8689 23.6003 91.1578 23.3619 91.3642 23.0384H95.9453C95.6977 23.7535 95.351 24.375 94.9053 24.9028C94.4595 25.4306 93.9395 25.8648 93.3617 26.2053C92.7839 26.5459 92.1401 26.8013 91.455 26.9715C90.7699 27.1418 90.0683 27.2269 89.3419 27.2269C88.3184 27.2269 87.3691 27.0737 86.4859 26.7672C85.6027 26.4607 84.8433 26.018 84.1995 25.4306C83.5557 24.8432 83.0521 24.1196 82.689 23.2597C82.3258 22.3999 82.1442 21.4209 82.1442 20.3141C82.1442 19.3436 82.301 18.4412 82.6229 17.5984C82.9448 16.7556 83.3988 16.0149 83.9931 15.3764C84.5874 14.7379 85.2973 14.2357 86.131 13.8696C86.9647 13.5035 87.8891 13.3247 88.9127 13.3247C90.1838 13.3247 91.2816 13.5035 92.2061 13.8611C93.1306 14.2186 93.89 14.7379 94.4843 15.4275C95.0786 16.1171 95.5161 16.9599 95.7967 17.9645C96.0774 18.969 96.2177 20.1183 96.2177 21.4123H86.8161L86.8078 21.4038ZM91.5128 18.7732C91.5128 18.1603 91.3147 17.641 90.9102 17.2068C90.5057 16.7726 89.9857 16.5513 89.3667 16.5513C88.6238 16.5513 88.046 16.7386 87.6333 17.1217C87.2205 17.5048 86.9564 18.0496 86.8409 18.7647H91.521L91.5128 18.7732Z" fill="#3074B4"/>
<path d="M98.2648 13.6397H102.986V15.0955H103.036C103.184 14.8912 103.358 14.6783 103.547 14.4655C103.737 14.2527 103.977 14.0654 104.249 13.8951C104.53 13.7249 104.876 13.5886 105.289 13.478C105.702 13.3673 106.205 13.3162 106.8 13.3162C107.708 13.3162 108.5 13.5205 109.177 13.9462C109.854 14.3634 110.415 14.9082 110.861 15.5808C111.306 16.2533 111.637 17.0025 111.868 17.8368C112.091 18.6711 112.198 19.5054 112.198 20.3397C112.198 21.1229 112.115 21.9231 111.95 22.7404C111.785 23.5577 111.496 24.2983 111.084 24.9624C110.671 25.6264 110.11 26.1713 109.4 26.5969C108.69 27.0226 107.798 27.2354 106.725 27.2354C105.982 27.2354 105.306 27.0737 104.695 26.7672C104.084 26.4522 103.589 26.018 103.209 25.4562H103.16V31.4154H98.2648V13.6397ZM103.077 21.4549C103.135 21.8465 103.242 22.1956 103.407 22.502C103.572 22.8085 103.795 23.0554 104.059 23.2512C104.323 23.447 104.695 23.5407 105.132 23.5407C105.57 23.5407 105.933 23.447 106.205 23.2512C106.478 23.0554 106.692 22.8085 106.857 22.502C107.023 22.1956 107.138 21.8465 107.196 21.4549C107.254 21.0633 107.278 20.6717 107.278 20.2801C107.278 19.8885 107.245 19.4969 107.196 19.1052C107.138 18.7136 107.023 18.3646 106.857 18.0496C106.692 17.7346 106.478 17.4792 106.205 17.2834C105.933 17.0876 105.57 16.994 105.132 16.994C104.695 16.994 104.332 17.0876 104.059 17.2834C103.787 17.4792 103.572 17.7346 103.407 18.0496C103.242 18.3646 103.127 18.7136 103.077 19.1052C103.019 19.4969 102.986 19.8885 102.986 20.2801C102.986 20.6717 103.019 21.0633 103.077 21.4549Z" fill="#3074B4"/>
<path d="M127.584 13.6397V15.3254H127.633C128.096 14.6613 128.665 14.159 129.326 13.8185C129.986 13.478 130.82 13.3077 131.81 13.3077C132.388 13.3077 132.941 13.4014 133.469 13.5886C133.997 13.7759 134.468 14.0484 134.881 14.4144C135.293 14.7805 135.615 15.2402 135.855 15.8021C136.094 16.364 136.218 17.028 136.218 17.7942V26.8779H131.315V19.9396C131.315 19.565 131.298 19.2159 131.265 18.8924C131.232 18.5689 131.158 18.288 131.042 18.0666C130.927 17.8368 130.77 17.658 130.564 17.5303C130.357 17.4026 130.077 17.343 129.713 17.343C129.499 17.343 129.276 17.3771 129.045 17.4452C128.814 17.5133 128.599 17.641 128.409 17.8283C128.219 18.0155 128.063 18.2709 127.939 18.6115C127.815 18.9435 127.749 19.3692 127.749 19.897V26.8864H122.854V13.6397H127.584Z" fill="#3074B4"/>
<path d="M146.321 17.4962C146.305 17.2749 146.247 17.0791 146.148 16.9259C146.049 16.7641 145.917 16.6194 145.752 16.5087C145.454 16.2533 145.091 16.1256 144.662 16.1256C144.315 16.1256 143.985 16.1937 143.655 16.3129C143.333 16.4406 143.176 16.7215 143.176 17.1387C143.176 17.326 143.234 17.4707 143.358 17.5729C143.482 17.675 143.614 17.7602 143.746 17.8283C143.944 17.9134 144.2 17.99 144.522 18.0581C144.844 18.1262 145.198 18.1943 145.586 18.2624C145.974 18.3305 146.379 18.4157 146.8 18.5093C147.221 18.603 147.642 18.7136 148.046 18.8499C148.459 18.9861 148.847 19.1563 149.218 19.3521C149.59 19.5479 149.912 19.7948 150.192 20.0928C150.473 20.3908 150.696 20.7398 150.861 21.1399C151.026 21.54 151.109 22.0083 151.109 22.5531C151.109 23.4726 150.91 24.2388 150.522 24.8347C150.135 25.4391 149.631 25.9159 149.012 26.2649C148.393 26.614 147.691 26.8608 146.907 27.0056C146.123 27.1503 145.347 27.2184 144.571 27.2184C143.795 27.2184 143.061 27.1418 142.309 26.98C141.558 26.8183 140.881 26.5459 140.271 26.1798C139.66 25.8137 139.156 25.3199 138.777 24.724C138.389 24.1281 138.182 23.4045 138.166 22.5531H142.846C142.863 22.9958 143.061 23.3874 143.44 23.728C143.721 23.9834 144.158 24.1111 144.753 24.1111C144.918 24.1111 145.099 24.094 145.281 24.06C145.471 24.0259 145.644 23.9663 145.809 23.8982C145.974 23.8216 146.115 23.7194 146.23 23.5832C146.346 23.447 146.404 23.2853 146.404 23.098C146.404 22.9107 146.371 22.7489 146.305 22.6127C146.239 22.4765 146.106 22.3573 145.908 22.2552C145.71 22.153 145.438 22.0594 145.083 21.9742C144.728 21.8891 144.266 21.7954 143.713 21.6933C141.847 21.3698 140.51 20.8845 139.693 20.229C138.876 19.5735 138.471 18.6796 138.471 17.5388C138.471 16.7045 138.661 16.0149 139.049 15.4701C139.437 14.9252 139.932 14.4996 140.535 14.1846C141.137 13.8696 141.789 13.6482 142.499 13.5205C143.209 13.3928 143.886 13.3247 144.53 13.3247C145.223 13.3247 145.933 13.3843 146.659 13.5035C147.386 13.6227 148.046 13.8355 148.64 14.142C149.235 14.4485 149.73 14.8742 150.126 15.419C150.522 15.9639 150.737 16.6619 150.77 17.5133H146.313L146.321 17.4962Z" fill="#3074B4"/>
<path d="M158.1 13.6397H153.197V26.8864H158.1V13.6397Z" fill="#3074B4"/>
<path d="M157.77 11.2645C157.175 11.8775 156.466 12.184 155.648 12.184C154.831 12.184 154.121 11.8775 153.527 11.2645C152.933 10.6516 152.636 9.91943 152.636 9.07661C152.636 8.2338 152.933 7.50166 153.527 6.8887C154.121 6.3098 154.831 6.00332 155.648 6.00332C156.466 6.00332 157.175 6.3098 157.77 6.8887C158.364 7.50166 158.661 8.2338 158.661 9.07661C158.661 9.91943 158.364 10.6516 157.77 11.2645Z" fill="#3074B4"/>
<path d="M173.981 25.0049C173.981 25.4476 173.956 25.9074 173.907 26.3926C173.857 26.8779 173.75 27.3546 173.585 27.8228C173.42 28.2911 173.189 28.7338 172.892 29.1594C172.594 29.5851 172.198 29.9597 171.703 30.2832C171.208 30.6067 170.605 30.8621 169.887 31.0494C169.169 31.2367 168.31 31.3303 167.303 31.3303C166.544 31.3303 165.793 31.2622 165.042 31.1345C164.291 31.0068 163.605 30.7769 162.986 30.462C162.367 30.1385 161.847 29.6958 161.418 29.1254C160.989 28.555 160.716 27.8228 160.601 26.9204H165.454C165.487 26.9885 165.529 27.0566 165.578 27.1418C165.628 27.2184 165.677 27.3035 165.727 27.3887C165.875 27.627 166.074 27.8484 166.321 28.0527C166.569 28.257 166.849 28.3592 167.163 28.3592C167.559 28.3592 167.881 28.2485 168.129 28.0357C168.376 27.8228 168.575 27.5589 168.723 27.2439C168.872 26.9289 168.971 26.5969 169.02 26.2479C169.07 25.8988 169.095 25.5924 169.095 25.3199V24.094H169.045C168.649 24.69 168.162 25.1497 167.584 25.4562C167.006 25.7711 166.346 25.9244 165.603 25.9244C164.662 25.9244 163.845 25.7541 163.151 25.4136C162.458 25.0731 161.889 24.6133 161.435 24.0259C160.981 23.4385 160.642 22.7574 160.428 21.9742C160.213 21.191 160.106 20.3567 160.106 19.4713C160.106 18.5859 160.221 17.7857 160.469 17.0195C160.708 16.2533 161.055 15.5893 161.517 15.0189C161.979 14.4485 162.557 13.9973 163.251 13.6568C163.944 13.3162 164.753 13.146 165.677 13.146C166.404 13.146 167.081 13.2992 167.691 13.6057C168.31 13.9122 168.756 14.4059 169.037 15.087H169.086V13.478H173.989V25.0135L173.981 25.0049ZM165.099 20.578C165.166 20.9611 165.281 21.3102 165.446 21.6252C165.611 21.9402 165.834 22.1956 166.115 22.3914C166.395 22.5872 166.759 22.6893 167.204 22.6893C167.65 22.6893 168.005 22.5872 168.277 22.3829C168.55 22.1785 168.748 21.9231 168.888 21.6082C169.02 21.2932 169.103 20.9441 169.144 20.561C169.185 20.1779 169.202 19.8033 169.202 19.4288C169.202 18.6966 169.029 18.0837 168.682 17.5729C168.335 17.0706 167.799 16.8237 167.072 16.8237C166.726 16.8237 166.42 16.9003 166.156 17.045C165.892 17.1898 165.677 17.3771 165.504 17.6154C165.331 17.8538 165.207 18.1262 165.116 18.4412C165.033 18.7562 164.992 19.0882 164.992 19.4458C164.992 19.8033 165.025 20.1949 165.091 20.578H165.099Z" fill="#3074B4"/>
<path d="M176.482 8.66797H181.377V15.07H181.426C181.839 14.5592 182.351 14.142 182.962 13.81C183.573 13.478 184.398 13.3077 185.438 13.3077C186.016 13.3077 186.569 13.4014 187.097 13.5886C187.625 13.7759 188.096 14.0484 188.509 14.4144C188.921 14.7805 189.243 15.2402 189.483 15.8021C189.722 16.364 189.846 17.028 189.846 17.7942V26.8779H184.943V19.9396C184.943 19.565 184.926 19.2159 184.893 18.8924C184.86 18.5689 184.786 18.288 184.67 18.0666C184.555 17.8368 184.398 17.658 184.192 17.5303C183.985 17.4026 183.705 17.343 183.341 17.343C183.127 17.343 182.904 17.3771 182.673 17.4452C182.442 17.5133 182.227 17.641 182.037 17.8283C181.847 18.0155 181.691 18.2709 181.567 18.6115C181.443 18.9435 181.377 19.3692 181.377 19.897V26.8864H176.482V8.66797Z" fill="#3074B4"/>
<path d="M198.405 13.6397H201.03V16.7556H198.405V21.3698C198.405 21.9827 198.496 22.4339 198.686 22.7064C198.876 22.9873 199.28 23.1235 199.908 23.1235C200.271 23.1235 200.642 23.098 201.022 23.0469V26.8779C200.527 26.8779 200.015 26.9034 199.478 26.9545C198.942 27.0056 198.414 27.0311 197.885 27.0311C197.357 27.0311 196.837 26.9971 196.317 26.9289C195.797 26.8608 195.335 26.6906 194.922 26.4181C194.509 26.1457 194.171 25.7456 193.907 25.2178C193.643 24.69 193.511 23.9748 193.511 23.0724V16.7471H191.332V13.6312H193.511V8.65095H198.414V13.6312L198.405 13.6397Z" fill="#3074B4"/>
<path d="M118.017 30.479C117.423 31.0919 116.721 31.3984 115.904 31.3984C115.087 31.3984 114.385 31.0919 113.791 30.479C113.197 29.866 112.9 29.1424 112.9 28.2996C112.9 27.4568 113.197 26.7331 113.791 26.1202C114.385 25.5498 115.087 25.2433 115.904 25.2433C116.721 25.2433 117.423 25.5498 118.017 26.1202C118.612 26.7331 118.909 27.4568 118.909 28.2996C118.909 29.1424 118.612 29.866 118.017 30.479Z" fill="#3074B4"/>
<path d="M118.24 23.5662H114.352L115.524 6.0544H123.391L118.24 23.5662Z" fill="#3074B4"/>
<path d="M9.41384 26.248L7.81612 34.4565C7.72168 34.9838 7.73742 35.3812 7.87909 35.6651C8.02076 35.9409 8.3277 36.0463 8.79207 35.9815L25.2965 33.6211C27.3822 33.321 29.2869 32.7045 31.0027 31.7636C32.7184 30.8227 34.1823 29.4519 35.3944 27.6593C36.6065 25.8667 37.4801 23.555 38.0074 20.7161L39.1486 13.0266L9.41384 26.248Z" fill="url(#paint0_linear_134_503)"/>
<path d="M35.1426 4.48551C34.7255 2.87949 33.8203 1.72769 32.4351 1.03824C31.0499 0.348783 29.3105 0 27.2091 0H10.5787C10.1065 0 9.72084 0.146002 9.42963 0.446118C9.13842 0.738123 8.91805 1.14368 8.76064 1.65469L0.858643 27.5458L34.5208 10.9988C35.3551 8.26535 35.5597 6.09154 35.1426 4.48551ZM18.4886 12.3859C18.4335 12.759 18.3312 13.0834 18.1738 13.3754C18.0164 13.6674 17.8117 13.9027 17.552 14.0892C17.2923 14.2758 16.9538 14.365 16.5288 14.365C16.1038 14.365 15.7654 14.2758 15.5057 14.0892C15.2459 13.9027 15.0413 13.6674 14.8839 13.3754C14.7265 13.0834 14.6242 12.759 14.5691 12.3859C14.514 12.0127 14.4904 11.6477 14.4904 11.2746C14.4904 10.9015 14.514 10.5365 14.5691 10.1634C14.6242 9.79026 14.7265 9.4577 14.8839 9.1657C15.0413 8.86558 15.2459 8.62225 15.5057 8.4438C15.7654 8.25724 16.1038 8.16802 16.5288 8.16802C16.9538 8.16802 17.2923 8.25724 17.552 8.4438C17.8117 8.63036 18.0164 8.87369 18.1738 9.1657C18.3312 9.46581 18.4335 9.79838 18.4886 10.1634C18.5437 10.5365 18.5673 10.9015 18.5673 11.2746C18.5673 11.6477 18.5358 12.0127 18.4886 12.3859ZM27.1462 9.42526C27.0911 9.79838 26.9887 10.1228 26.8313 10.4148C26.6739 10.7068 26.4693 10.9421 26.2096 11.1286C25.9498 11.3152 25.6114 11.4044 25.1864 11.4044C24.7614 11.4044 24.423 11.3152 24.1632 11.1286C23.9035 10.9421 23.6989 10.7068 23.5415 10.4148C23.384 10.1228 23.2817 9.79838 23.2266 9.42526C23.1715 9.05214 23.1479 8.68714 23.1479 8.31402C23.1479 7.9409 23.1794 7.5759 23.2266 7.20278C23.2817 6.82966 23.384 6.4971 23.5415 6.2051C23.6989 5.90498 23.9035 5.66164 24.1632 5.4832C24.423 5.30475 24.7614 5.20741 25.1864 5.20741C25.6114 5.20741 25.9498 5.29664 26.2096 5.4832C26.4693 5.66976 26.6739 5.91309 26.8313 6.2051C26.9887 6.50521 27.0911 6.83777 27.1462 7.20278C27.2012 7.5759 27.2249 7.9409 27.2249 8.31402C27.2249 8.68714 27.1934 9.05214 27.1462 9.42526Z" fill="url(#paint1_linear_134_503)"/>
</g>
<defs>
<linearGradient id="paint0_linear_134_503" x1="6.72652" y1="26.7433" x2="40.3279" y2="22.6417" gradientUnits="userSpaceOnUse">
<stop stop-color="#306EA9"/>
<stop offset="1" stop-color="#4497C0"/>
</linearGradient>
<linearGradient id="paint1_linear_134_503" x1="0.858643" y1="13.7729" x2="35.3551" y2="13.7729" gradientUnits="userSpaceOnUse">
<stop stop-color="#5DB4B9"/>
<stop offset="1" stop-color="#42A8DA"/>
</linearGradient>
<clipPath id="clip0_134_503">
<rect width="200" height="36" fill="white"/>
</clipPath>
</defs>
</svg>
