<svg width="200" height="34" viewBox="0 0 200 34" fill="none" xmlns="http://www.w3.org/2000/svg">
<path d="M56.2762 8.1875C57.7308 8.1875 58.9566 8.42871 59.9617 8.91917C60.9668 9.40963 61.7758 10.0529 62.3969 10.8488C63.0179 11.6448 63.4674 12.5614 63.7452 13.5986C64.023 14.6358 64.1619 15.6891 64.1619 16.7665C64.1619 18.0851 63.9822 19.2751 63.6226 20.3445C63.2631 21.4138 62.7155 22.3224 61.9801 23.0701C61.2446 23.8179 60.3131 24.3887 59.1854 24.7908C58.0577 25.1928 56.7339 25.3938 55.2139 25.3938H47.4263V8.1875H56.2762ZM52.8196 20.9877H54.9279C55.7614 20.9877 56.4315 20.8349 56.9381 20.5455C57.4448 20.248 57.8289 19.8862 58.0985 19.452C58.3682 19.0178 58.548 18.5515 58.6379 18.053C58.7278 17.5545 58.7686 17.1042 58.7686 16.7022C58.7686 16.4288 58.7278 16.067 58.6542 15.6087C58.5807 15.1504 58.4009 14.7002 58.1149 14.2499C57.8289 13.7996 57.4039 13.4137 56.8401 13.0921C56.2762 12.7705 55.5081 12.6097 54.5275 12.6097H52.8114V20.9957L52.8196 20.9877Z" fill="white"/>
<path d="M70.5114 20.2158C70.5767 20.9395 70.8137 21.5264 71.2223 21.9767C71.6309 22.4269 72.2193 22.652 72.9874 22.652C73.3796 22.652 73.7637 22.5797 74.1478 22.435C74.5319 22.2902 74.8179 22.0651 75.0222 21.7596H79.5575C79.3123 22.435 78.9691 23.0219 78.5278 23.5204C78.0865 24.0189 77.5717 24.429 76.9997 24.7506C76.4195 25.0722 75.7903 25.3134 75.112 25.4742C74.4338 25.635 73.7392 25.7154 73.0201 25.7154C72.0068 25.7154 71.067 25.5707 70.1927 25.2812C69.3183 24.9918 68.5665 24.5737 67.9291 24.0189C67.2917 23.4641 66.7932 22.7807 66.4337 21.9686C66.0741 21.1565 65.8943 20.2319 65.8943 19.1867C65.8943 18.2701 66.0496 17.4178 66.3683 16.6218C66.687 15.8258 67.1364 15.1263 67.7248 14.5233C68.3132 13.9203 69.0159 13.4459 69.8413 13.1001C70.6666 12.7544 71.5819 12.5856 72.5952 12.5856C73.8536 12.5856 74.9404 12.7544 75.8557 13.0921C76.7709 13.4298 77.5227 13.9203 78.1111 14.5715C78.6994 15.2228 79.1325 16.0188 79.4104 16.9675C79.6882 17.9163 79.8271 19.0017 79.8271 20.2239H70.5195L70.5114 20.2158ZM75.1611 17.7314C75.1611 17.1525 74.965 16.662 74.5645 16.252C74.1641 15.8419 73.6493 15.6328 73.0364 15.6328C72.301 15.6328 71.729 15.8097 71.3204 16.1716C70.9118 16.5334 70.6503 17.0479 70.5359 17.7233H75.1692L75.1611 17.7314Z" fill="white"/>
<path d="M85.9396 20.2158C86.0049 20.9395 86.2419 21.5264 86.6505 21.9767C87.0591 22.4269 87.6475 22.652 88.4156 22.652C88.8078 22.652 89.1919 22.5797 89.576 22.435C89.9601 22.2902 90.2461 22.0651 90.4504 21.7596H94.9857C94.7405 22.435 94.3973 23.0219 93.956 23.5204C93.5148 24.0189 92.9999 24.429 92.4279 24.7506C91.8559 25.0722 91.2185 25.3134 90.5402 25.4742C89.862 25.635 89.1674 25.7154 88.4483 25.7154C87.435 25.7154 86.4952 25.5707 85.6209 25.2812C84.7465 24.9918 83.9947 24.5737 83.3573 24.0189C82.7199 23.4641 82.2214 22.7807 81.8619 21.9686C81.5023 21.1565 81.3225 20.2319 81.3225 19.1867C81.3225 18.2701 81.4778 17.4178 81.7965 16.6218C82.1152 15.8258 82.5647 15.1263 83.153 14.5233C83.7414 13.9203 84.4441 13.4459 85.2695 13.1001C86.0948 12.7544 87.0101 12.5856 88.0234 12.5856C89.2818 12.5856 90.3686 12.7544 91.2839 13.0921C92.1991 13.4298 92.9509 13.9203 93.5393 14.5715C94.1276 15.2228 94.5607 16.0188 94.8386 16.9675C95.1164 17.9163 95.2553 19.0017 95.2553 20.2239H85.9477L85.9396 20.2158ZM90.5974 17.7314C90.5974 17.1525 90.4013 16.662 90.0009 16.252C89.6005 15.8419 89.0857 15.6328 88.4728 15.6328C87.7373 15.6328 87.1653 15.8097 86.7567 16.1716C86.3482 16.5334 86.0867 17.0479 85.9723 17.7233H90.6056L90.5974 17.7314Z" fill="white"/>
<path d="M97.2819 12.8831H101.956V14.258H102.005C102.152 14.065 102.324 13.864 102.512 13.663C102.7 13.462 102.937 13.2851 103.206 13.1243C103.484 12.9635 103.827 12.8348 104.236 12.7303C104.645 12.6258 105.143 12.5775 105.731 12.5775C106.63 12.5775 107.415 12.7705 108.085 13.1725C108.755 13.5665 109.311 14.0811 109.752 14.7163C110.193 15.3514 110.52 16.059 110.749 16.8469C110.97 17.6349 111.076 18.4228 111.076 19.2108C111.076 19.9505 110.994 20.7063 110.831 21.4782C110.667 22.25 110.381 22.9495 109.973 23.5767C109.564 24.2038 109.008 24.7184 108.306 25.1204C107.603 25.5224 106.72 25.7234 105.658 25.7234C104.922 25.7234 104.252 25.5707 103.648 25.2812C103.043 24.9837 102.553 24.5737 102.177 24.043H102.128V29.6712H97.2819V12.8831ZM102.046 20.2641C102.103 20.6339 102.209 20.9636 102.373 21.253C102.536 21.5425 102.757 21.7756 103.018 21.9606C103.28 22.1455 103.648 22.2339 104.081 22.2339C104.514 22.2339 104.873 22.1455 105.143 21.9606C105.413 21.7756 105.625 21.5425 105.789 21.253C105.952 20.9636 106.067 20.6339 106.124 20.2641C106.181 19.8942 106.205 19.5244 106.205 19.1545C106.205 18.7847 106.173 18.4148 106.124 18.0449C106.067 17.6751 105.952 17.3454 105.789 17.0479C105.625 16.7505 105.413 16.5092 105.143 16.3243C104.873 16.1394 104.514 16.0509 104.081 16.0509C103.648 16.0509 103.288 16.1394 103.018 16.3243C102.749 16.5092 102.536 16.7505 102.373 17.0479C102.209 17.3454 102.095 17.6751 102.046 18.0449C101.989 18.4148 101.956 18.7847 101.956 19.1545C101.956 19.5244 101.989 19.8942 102.046 20.2641Z" fill="white"/>
<path d="M126.308 12.8831V14.475H126.357C126.814 13.8479 127.378 13.3735 128.032 13.0519C128.686 12.7303 129.511 12.5695 130.492 12.5695C131.064 12.5695 131.611 12.6579 132.134 12.8348C132.657 13.0117 133.123 13.269 133.532 13.6147C133.94 13.9605 134.259 14.3946 134.496 14.9253C134.733 15.456 134.855 16.0831 134.855 16.8067V25.3858H130.001V18.8329C130.001 18.4791 129.985 18.1495 129.952 17.8439C129.92 17.5384 129.846 17.2731 129.732 17.064C129.617 16.8469 129.462 16.6781 129.258 16.5575C129.054 16.4369 128.776 16.3806 128.416 16.3806C128.204 16.3806 127.983 16.4128 127.754 16.4771C127.525 16.5414 127.313 16.662 127.125 16.8389C126.937 17.0158 126.782 17.257 126.659 17.5786C126.537 17.8922 126.471 18.2942 126.471 18.7927V25.3938H121.625V12.8831H126.308Z" fill="white"/>
<path d="M144.858 16.5253C144.841 16.3163 144.784 16.1313 144.686 15.9866C144.588 15.8339 144.457 15.6972 144.294 15.5926C144 15.3514 143.64 15.2308 143.215 15.2308C142.872 15.2308 142.545 15.2952 142.218 15.4077C141.9 15.5283 141.744 15.7937 141.744 16.1876C141.744 16.3645 141.801 16.5012 141.924 16.5977C142.047 16.6942 142.177 16.7746 142.308 16.8389C142.504 16.9193 142.758 16.9917 143.076 17.056C143.395 17.1203 143.746 17.1846 144.13 17.249C144.514 17.3133 144.915 17.3937 145.332 17.4821C145.748 17.5706 146.165 17.6751 146.566 17.8037C146.974 17.9324 147.358 18.0932 147.726 18.2781C148.094 18.463 148.412 18.6962 148.69 18.9776C148.968 19.259 149.189 19.5887 149.352 19.9666C149.516 20.3445 149.597 20.7867 149.597 21.3013C149.597 22.1696 149.401 22.8933 149.017 23.4561C148.633 24.0269 148.135 24.4772 147.522 24.8069C146.909 25.1365 146.214 25.3697 145.438 25.5064C144.662 25.643 143.893 25.7074 143.125 25.7074C142.357 25.7074 141.63 25.635 140.886 25.4822C140.143 25.3295 139.472 25.0722 138.868 24.7264C138.263 24.3807 137.765 23.9144 137.389 23.3516C137.005 22.7887 136.8 22.1053 136.784 21.3013H141.417C141.434 21.7194 141.63 22.0892 142.006 22.4108C142.284 22.652 142.717 22.7726 143.305 22.7726C143.468 22.7726 143.648 22.7566 143.828 22.7244C144.016 22.6922 144.188 22.636 144.351 22.5716C144.514 22.4993 144.653 22.4028 144.768 22.2741C144.882 22.1455 144.939 21.9927 144.939 21.8159C144.939 21.639 144.907 21.4862 144.841 21.3576C144.776 21.2289 144.645 21.1163 144.449 21.0199C144.253 20.9234 143.983 20.8349 143.632 20.7545C143.281 20.6741 142.823 20.5857 142.275 20.4892C140.429 20.1837 139.105 19.7254 138.296 19.1063C137.487 18.4872 137.086 17.6429 137.086 16.5655C137.086 15.7776 137.274 15.1263 137.658 14.6117C138.042 14.0971 138.533 13.6951 139.129 13.3976C139.726 13.1002 140.371 12.8911 141.074 12.7705C141.777 12.6499 142.447 12.5856 143.084 12.5856C143.771 12.5856 144.474 12.6419 145.193 12.7544C145.912 12.867 146.566 13.068 147.154 13.3574C147.742 13.6469 148.233 14.0489 148.625 14.5635C149.017 15.0781 149.23 15.7374 149.262 16.5414H144.849L144.858 16.5253Z" fill="white"/>
<path d="M156.519 12.8831H151.665V25.3938H156.519V12.8831Z" fill="white"/>
<path d="M156.192 10.6398C155.603 11.2187 154.901 11.5082 154.092 11.5082C153.283 11.5082 152.58 11.2187 151.992 10.6398C151.403 10.0609 151.109 9.36944 151.109 8.57345C151.109 7.77746 151.403 7.08599 151.992 6.50709C152.58 5.96035 153.283 5.6709 154.092 5.6709C154.901 5.6709 155.603 5.96035 156.192 6.50709C156.78 7.08599 157.074 7.77746 157.074 8.57345C157.074 9.36944 156.78 10.0609 156.192 10.6398Z" fill="white"/>
<path d="M172.241 23.6169C172.241 24.035 172.217 24.4692 172.168 24.9275C172.118 25.3857 172.012 25.836 171.849 26.2782C171.685 26.7204 171.457 27.1385 171.162 27.5406C170.868 27.9426 170.476 28.2963 169.986 28.6019C169.495 28.9074 168.899 29.1486 168.188 29.3255C167.477 29.5024 166.627 29.5908 165.63 29.5908C164.878 29.5908 164.135 29.5265 163.391 29.4059C162.647 29.2853 161.969 29.0682 161.356 28.7707C160.743 28.4652 160.229 28.0471 159.804 27.5084C159.379 26.9697 159.109 26.2782 158.995 25.426H163.8C163.832 25.4903 163.873 25.5546 163.922 25.635C163.971 25.7074 164.02 25.7878 164.069 25.8682C164.216 26.0933 164.413 26.3023 164.658 26.4953C164.903 26.6883 165.181 26.7848 165.491 26.7848C165.883 26.7848 166.202 26.6802 166.447 26.4792C166.692 26.2782 166.889 26.029 167.036 25.7315C167.183 25.434 167.281 25.1204 167.33 24.7908C167.379 24.4611 167.403 24.1717 167.403 23.9144V22.7566H167.354C166.962 23.3194 166.48 23.7536 165.908 24.043C165.336 24.3405 164.682 24.4852 163.947 24.4852C163.015 24.4852 162.206 24.3244 161.52 24.0028C160.833 23.6812 160.269 23.247 159.82 22.6922C159.371 22.1375 159.036 21.4942 158.823 20.7545C158.611 20.0148 158.504 19.2269 158.504 18.3907C158.504 17.5545 158.619 16.7987 158.864 16.0751C159.101 15.3514 159.444 14.7243 159.902 14.1856C160.359 13.6469 160.931 13.2208 161.618 12.8991C162.304 12.5775 163.105 12.4167 164.02 12.4167C164.739 12.4167 165.41 12.5614 166.014 12.8509C166.627 13.1404 167.068 13.6067 167.346 14.2499H167.395V12.7303H172.249V23.6249L172.241 23.6169ZM163.448 19.4359C163.514 19.7977 163.628 20.1274 163.792 20.4249C163.955 20.7224 164.176 20.9636 164.453 21.1485C164.731 21.3334 165.091 21.4299 165.532 21.4299C165.973 21.4299 166.325 21.3334 166.594 21.1405C166.864 20.9475 167.06 20.7063 167.199 20.4088C167.33 20.1113 167.412 19.7817 167.452 19.4198C167.493 19.058 167.51 18.7042 167.51 18.3505C167.51 17.659 167.338 17.0801 166.995 16.5977C166.652 16.1233 166.12 15.8901 165.401 15.8901C165.058 15.8901 164.756 15.9625 164.494 16.0992C164.233 16.2359 164.02 16.4128 163.849 16.6379C163.677 16.863 163.555 17.1203 163.465 17.4178C163.383 17.7153 163.342 18.0289 163.342 18.3666C163.342 18.7042 163.375 19.0741 163.44 19.4359H163.448Z" fill="white"/>
<path d="M174.717 8.18752H179.563V14.2338H179.612C180.021 13.7514 180.527 13.3574 181.132 13.0439C181.737 12.7303 182.554 12.5695 183.583 12.5695C184.155 12.5695 184.703 12.6579 185.226 12.8348C185.749 13.0117 186.215 13.269 186.623 13.6147C187.032 13.9605 187.351 14.3946 187.588 14.9253C187.825 15.456 187.947 16.0831 187.947 16.8067V25.3858H183.093V18.8329C183.093 18.4791 183.077 18.1495 183.044 17.8439C183.011 17.5384 182.938 17.2731 182.823 17.064C182.709 16.8469 182.554 16.6781 182.349 16.5575C182.145 16.4369 181.867 16.3806 181.508 16.3806C181.295 16.3806 181.075 16.4128 180.846 16.4771C180.617 16.5414 180.405 16.662 180.217 16.8389C180.029 17.0158 179.873 17.257 179.751 17.5786C179.628 17.8922 179.563 18.2942 179.563 18.7927V25.3938H174.717V8.18752Z" fill="white"/>
<path d="M196.421 12.8831H199.02V15.8258H196.421V20.1837C196.421 20.7626 196.511 21.1887 196.699 21.446C196.887 21.7113 197.287 21.84 197.908 21.84C198.268 21.84 198.636 21.8159 199.012 21.7676V25.3858C198.521 25.3858 198.015 25.4099 197.484 25.4581C196.952 25.5064 196.429 25.5305 195.906 25.5305C195.383 25.5305 194.869 25.4983 194.354 25.434C193.839 25.3697 193.381 25.2089 192.973 24.9516C192.564 24.6943 192.229 24.3164 191.968 23.8179C191.706 23.3194 191.575 22.644 191.575 21.7917V15.8178H189.418V12.875H191.575V8.17144H196.429V12.875L196.421 12.8831Z" fill="white"/>
<path d="M116.837 28.7867C116.249 29.3656 115.554 29.655 114.745 29.655C113.936 29.655 113.241 29.3656 112.653 28.7867C112.065 28.2078 111.771 27.5243 111.771 26.7283C111.771 25.9323 112.065 25.2489 112.653 24.67C113.241 24.1313 113.936 23.8419 114.745 23.8419C115.554 23.8419 116.249 24.1313 116.837 24.67C117.425 25.2489 117.72 25.9323 117.72 26.7283C117.72 27.5243 117.425 28.2078 116.837 28.7867Z" fill="white"/>
<path d="M117.058 22.2579H113.209L114.369 5.71899H122.157L117.058 22.2579Z" fill="white"/>
<path d="M34.7912 4.2373C34.3782 2.72049 33.4822 1.63269 32.1108 0.981535C30.7395 0.330383 29.0175 0.000976562 26.9371 0.000976562H10.473C10.0055 0.000976562 9.62367 0.138868 9.33537 0.42231C9.04708 0.698092 8.82891 1.08112 8.67307 1.56374L0.850098 26.0164L34.1757 10.3888C35.0016 7.80714 35.2042 5.7541 34.7912 4.2373ZM18.3037 11.6987C18.2492 12.0511 18.1479 12.3575 17.9921 12.6333C17.8362 12.9091 17.6336 13.1313 17.3765 13.3075C17.1194 13.4837 16.7843 13.5679 16.3636 13.5679C15.9428 13.5679 15.6078 13.4837 15.3506 13.3075C15.0935 13.1313 14.8909 12.9091 14.7351 12.6333C14.5793 12.3575 14.478 12.0511 14.4234 11.6987C14.3689 11.3463 14.3455 11.0016 14.3455 10.6492C14.3455 10.2968 14.3689 9.95211 14.4234 9.59973C14.478 9.24734 14.5793 8.93325 14.7351 8.65747C14.8909 8.37403 15.0935 8.14421 15.3506 7.97568C15.6078 7.79948 15.9428 7.71521 16.3636 7.71521C16.7843 7.71521 17.1194 7.79948 17.3765 7.97568C17.6336 8.15187 17.8362 8.38169 17.9921 8.65747C18.1479 8.94091 18.2492 9.255 18.3037 9.59973C18.3583 9.95211 18.3817 10.2968 18.3817 10.6492C18.3817 11.0016 18.3505 11.3463 18.3037 11.6987ZM26.8747 8.90261C26.8202 9.255 26.7189 9.56142 26.5631 9.8372C26.4072 10.113 26.2046 10.3351 25.9475 10.5113C25.6904 10.6875 25.3553 10.7718 24.9346 10.7718C24.5138 10.7718 24.1788 10.6875 23.9216 10.5113C23.6645 10.3351 23.4619 10.113 23.3061 9.8372C23.1502 9.56142 23.049 9.255 22.9944 8.90261C22.9399 8.55022 22.9165 8.20549 22.9165 7.85311C22.9165 7.50072 22.9477 7.15599 22.9944 6.8036C23.049 6.45121 23.1502 6.13713 23.3061 5.86135C23.4619 5.5779 23.6645 5.34809 23.9216 5.17955C24.1788 5.01102 24.5138 4.91909 24.9346 4.91909C25.3553 4.91909 25.6904 5.00336 25.9475 5.17955C26.2046 5.35575 26.4072 5.58556 26.5631 5.86135C26.7189 6.14479 26.8202 6.45887 26.8747 6.8036C26.9293 7.15599 26.9527 7.50072 26.9527 7.85311C26.9527 8.20549 26.9215 8.55022 26.8747 8.90261Z" fill="white"/>
<path d="M9.31987 24.7908L7.73813 32.5433C7.64463 33.0412 7.66022 33.4166 7.80047 33.6847C7.94072 33.9452 8.2446 34.0448 8.70432 33.9835L25.0437 31.7543C27.1086 31.4708 28.9942 30.8886 30.6928 30C32.3914 29.1113 33.8407 27.8167 35.0406 26.1237C36.2406 24.4307 37.1055 22.2474 37.6275 19.5662L38.7573 12.304L9.31987 24.7908Z" fill="white"/>
</svg>
