<svg width="24" height="24" viewBox="0 0 24 24" fill="none" xmlns="http://www.w3.org/2000/svg">
<g id="fb" clip-path="url(#clip0_134_495)">
<path id="Vector" d="M24 12.001C24 5.37356 18.6274 0.000976562 12 0.000976562C5.37258 0.000976562 0 5.37356 0 12.001C0 17.9904 4.3882 22.955 10.125 23.8552V15.4697H7.07812V12.001H10.125V9.35723C10.125 6.34973 11.9166 4.68848 14.6576 4.68848C15.9701 4.68848 17.3438 4.92285 17.3438 4.92285V7.87598H15.8306C14.34 7.87598 13.875 8.80105 13.875 9.75098V12.001H17.2031L16.6711 15.4697H13.875V23.8552C19.6118 22.955 24 17.9904 24 12.001Z" fill="white" fill-opacity="0.5"/>
</g>
<defs>
<clipPath id="clip0_134_495">
<rect width="24" height="24" fill="white" transform="translate(0 0.000976562)"/>
</clipPath>
</defs>
</svg>
