<svg width="36" height="36" viewBox="0 0 36 36" fill="none" xmlns="http://www.w3.org/2000/svg">
<path d="M27.4498 8.56509C27.3111 8.42604 27.1462 8.31571 26.9648 8.24044C26.7833 8.16517 26.5888 8.12643 26.3923 8.12643C26.1959 8.12643 26.0014 8.16517 25.8199 8.24044C25.6384 8.31571 25.4736 8.42604 25.3348 8.56509L17.9998 15.8851L10.6648 8.55009C10.526 8.41122 10.3611 8.30106 10.1797 8.2259C9.99822 8.15074 9.80374 8.11206 9.60735 8.11206C9.41095 8.11206 9.21648 8.15074 9.03503 8.2259C8.85359 8.30106 8.68872 8.41122 8.54985 8.55009C8.41097 8.68896 8.30081 8.85383 8.22566 9.03528C8.1505 9.21672 8.11182 9.4112 8.11182 9.60759C8.11182 9.80399 8.1505 9.99846 8.22566 10.1799C8.30081 10.3614 8.41097 10.5262 8.54985 10.6651L15.8848 18.0001L8.54985 25.3351C8.41097 25.474 8.30081 25.6388 8.22566 25.8203C8.1505 26.0017 8.11182 26.1962 8.11182 26.3926C8.11182 26.589 8.1505 26.7835 8.22566 26.9649C8.30081 27.1464 8.41097 27.3112 8.54985 27.4501C8.68872 27.589 8.85359 27.6991 9.03503 27.7743C9.21648 27.8494 9.41095 27.8881 9.60735 27.8881C9.80374 27.8881 9.99822 27.8494 10.1797 27.7743C10.3611 27.6991 10.526 27.589 10.6648 27.4501L17.9998 20.1151L25.3348 27.4501C25.4737 27.589 25.6386 27.6991 25.82 27.7743C26.0015 27.8494 26.1959 27.8881 26.3923 27.8881C26.5887 27.8881 26.7832 27.8494 26.9647 27.7743C27.1461 27.6991 27.311 27.589 27.4498 27.4501C27.5887 27.3112 27.6989 27.1464 27.774 26.9649C27.8492 26.7835 27.8879 26.589 27.8879 26.3926C27.8879 26.1962 27.8492 26.0017 27.774 25.8203C27.6989 25.6388 27.5887 25.474 27.4498 25.3351L20.1148 18.0001L27.4498 10.6651C28.0198 10.0951 28.0198 9.13509 27.4498 8.56509Z" fill="black"/>
</svg>
