<svg width="24" height="24" viewBox="0 0 24 24" fill="none" xmlns="http://www.w3.org/2000/svg">
<g clip-path="url(#clip0_141_1887)">
<path d="M19.365 9.86299C19.5279 9.86948 19.6819 9.93874 19.7949 10.0563C19.9078 10.1738 19.9709 10.3305 19.9709 10.4935C19.9709 10.6565 19.9078 10.8132 19.7949 10.9307C19.6819 11.0482 19.5279 11.1175 19.365 11.124H17.61V12.249H19.365C19.4498 12.2456 19.5344 12.2594 19.6137 12.2895C19.693 12.3196 19.7654 12.3654 19.8266 12.4242C19.8878 12.483 19.9365 12.5536 19.9697 12.6316C20.003 12.7097 20.0201 12.7936 20.0201 12.8785C20.0201 12.9633 20.003 13.0473 19.9697 13.1254C19.9365 13.2034 19.8878 13.274 19.8266 13.3328C19.7654 13.3915 19.693 13.4374 19.6137 13.4675C19.5344 13.4976 19.4498 13.5114 19.365 13.508H16.979C16.8126 13.5072 16.6533 13.4406 16.5358 13.3228C16.4183 13.2049 16.3523 13.0454 16.352 12.879V8.10799C16.352 7.76299 16.634 7.47799 16.982 7.47799H19.368C19.5351 7.47839 19.6952 7.54515 19.813 7.66357C19.9309 7.782 19.9969 7.9424 19.9965 8.10949C19.9961 8.27658 19.9293 8.43666 19.8109 8.55453C19.6925 8.6724 19.5321 8.73839 19.365 8.73799H17.61V9.86299H19.365ZM15.51 12.879C15.5092 13.0457 15.4423 13.2054 15.3241 13.3229C15.2058 13.4404 15.0457 13.5063 14.879 13.506C14.7802 13.508 14.6824 13.4863 14.5937 13.4428C14.505 13.3993 14.4279 13.3353 14.369 13.256L11.926 9.93899V12.879C11.915 13.0382 11.844 13.1873 11.7273 13.2961C11.6107 13.405 11.4571 13.4655 11.2975 13.4655C11.1379 13.4655 10.9843 13.405 10.8677 13.2961C10.751 13.1873 10.68 13.0382 10.669 12.879V8.10799C10.6687 7.94205 10.7343 7.78276 10.8512 7.66505C10.9682 7.54733 11.1271 7.48078 11.293 7.47999C11.488 7.47999 11.668 7.58399 11.788 7.73399L14.25 11.064V8.10799C14.25 7.76299 14.532 7.47799 14.88 7.47799C15.225 7.47799 15.51 7.76299 15.51 8.10799V12.879ZM9.769 12.879C9.76887 12.9617 9.75244 13.0436 9.72066 13.12C9.68888 13.1964 9.64236 13.2658 9.58377 13.3242C9.52518 13.3826 9.45565 13.4289 9.37917 13.4604C9.30268 13.492 9.22073 13.5081 9.138 13.508C8.97161 13.5072 8.81228 13.4406 8.69481 13.3228C8.57734 13.2049 8.51126 13.0454 8.511 12.879V8.10799C8.511 7.76299 8.793 7.47799 9.141 7.47799C9.487 7.47799 9.769 7.76299 9.769 8.10799V12.879ZM7.303 13.508H4.917C4.75041 13.5069 4.59092 13.4404 4.47303 13.3227C4.35514 13.205 4.28831 13.0456 4.287 12.879V8.10799C4.287 7.76299 4.572 7.47799 4.917 7.47799C5.265 7.47799 5.547 7.76299 5.547 8.10799V12.249H7.303C7.46561 12.2555 7.61941 12.3246 7.73217 12.442C7.84493 12.5593 7.90791 12.7157 7.90791 12.8785C7.90791 13.0412 7.84493 13.1977 7.73217 13.315C7.61941 13.4324 7.46561 13.5015 7.303 13.508ZM24 10.314C24 4.94299 18.615 0.571991 12 0.571991C5.385 0.571991 0 4.94299 0 10.314C0 15.125 4.27 19.156 10.035 19.922C10.426 20.004 10.958 20.18 11.093 20.512C11.213 20.813 11.172 21.278 11.131 21.592L10.967 22.612C10.922 22.913 10.727 23.798 12.016 23.257C13.307 22.718 18.932 19.179 21.452 16.282C23.176 14.393 24 12.458 24 10.314Z" fill="#181818" fill-opacity="0.5"/>
</g>
<defs>
<clipPath id="clip0_141_1887">
<rect width="24" height="24" fill="white"/>
</clipPath>
</defs>
</svg>
