<svg width="24" height="24" viewBox="0 0 24 24" fill="none" xmlns="http://www.w3.org/2000/svg">
<path d="M14.8284 12L16.2434 13.414L19.0714 10.586C19.8216 9.83582 20.243 8.81838 20.243 7.75749C20.243 6.69659 19.8216 5.67915 19.0714 4.92899C18.7 4.55754 18.259 4.2629 17.7737 4.06188C17.2884 3.86085 16.7682 3.75739 16.2429 3.75739C15.182 3.75739 14.1646 4.17882 13.4144 4.92899L10.5864 7.75699L12.0004 9.17199L14.8284 6.34299C15.2036 5.96784 15.7124 5.75708 16.2429 5.75708C16.7735 5.75708 17.2823 5.96784 17.6574 6.34299C18.0326 6.71814 18.2433 7.22695 18.2433 7.75749C18.2433 8.28803 18.0326 8.79684 17.6574 9.17199L14.8284 12ZM12.0004 14.829L13.4144 16.243L10.5864 19.071C9.83625 19.8212 8.81881 20.2426 7.75792 20.2426C6.69702 20.2426 5.67958 19.8212 4.92942 19.071C4.17925 18.3208 3.75781 17.3034 3.75781 16.2425C3.75781 15.1816 4.17925 14.1642 4.92942 13.414L7.75742 10.586L9.17242 12L6.34342 14.829C5.9684 15.2041 5.75777 15.7129 5.75786 16.2433C5.75796 16.7738 5.96877 17.2825 6.34392 17.6575C6.71906 18.0325 7.22782 18.2431 7.75827 18.243C8.28872 18.2429 8.7974 18.0321 9.17242 17.657L12.0004 14.829Z" fill="#181818" fill-opacity="0.5"/>
<path d="M14.8295 10.586C15.0171 10.3983 15.1225 10.1438 15.1225 9.87849C15.1225 9.61312 15.0171 9.35863 14.8295 9.17099C14.6418 8.98334 14.3873 8.87793 14.122 8.87793C13.8566 8.87793 13.6021 8.98334 13.4145 9.17099L9.17248 13.414C9.07697 13.5062 9.00078 13.6166 8.94837 13.7386C8.89597 13.8606 8.86838 13.9918 8.86723 14.1246C8.86607 14.2574 8.89137 14.389 8.94165 14.5119C8.99193 14.6348 9.06619 14.7465 9.16008 14.8404C9.25397 14.9343 9.36562 15.0085 9.48852 15.0588C9.61142 15.1091 9.7431 15.1344 9.87588 15.1332C10.0087 15.1321 10.1399 15.1045 10.2619 15.0521C10.3839 14.9997 10.4942 14.9235 10.5865 14.828L14.8295 10.586Z" fill="#181818" fill-opacity="0.5"/>
</svg>
