<svg width="24" height="24" viewBox="0 0 24 24" fill="none" xmlns="http://www.w3.org/2000/svg">
<g id="yt" clip-path="url(#clip0_134_497)">
<path id="Vector" d="M9.6 17.1438L15.828 12.001L9.6 6.85812V17.1438ZM23.472 3.72098C23.628 4.52669 23.736 5.60669 23.808 6.97812C23.892 8.34955 23.928 9.53241 23.928 10.561L24 12.001C24 15.7553 23.808 18.5153 23.472 20.281C23.172 21.8238 22.476 22.8181 21.396 23.2467C20.832 23.4695 19.8 23.6238 18.216 23.7267C16.656 23.8467 15.228 23.8981 13.908 23.8981L12 24.001C6.972 24.001 3.84 23.7267 2.604 23.2467C1.524 22.8181 0.828 21.8238 0.528 20.281C0.372 19.4753 0.264 18.3953 0.192 17.0238C0.108 15.6524 0.0719999 14.4695 0.0719999 13.441L0 12.001C0 8.24669 0.192 5.48669 0.528 3.72098C0.828 2.17812 1.524 1.18383 2.604 0.755262C3.168 0.532405 4.2 0.378119 5.784 0.275262C7.344 0.155262 8.772 0.103834 10.092 0.103834L12 0.000976562C17.028 0.000976562 20.16 0.275262 21.396 0.755262C22.476 1.18383 23.172 2.17812 23.472 3.72098Z" fill="white" fill-opacity="0.5"/>
</g>
<defs>
<clipPath id="clip0_134_497">
<rect width="24" height="24" fill="white" transform="translate(0 0.000976562)"/>
</clipPath>
</defs>
</svg>
